<?xml version="1.0" encoding="UTF-8"?>
<svg version="1.1" xmlns="http://www.w3.org/2000/svg" width="512" height="512">
<path d="M0 0 C0.90186035 0.17692383 1.8037207 0.35384766 2.73291016 0.53613281 C9.20599895 1.83501287 15.60888488 3.34657126 22 5 C22.82000488 5.20963379 23.64000977 5.41926758 24.48486328 5.63525391 C58.17024255 14.44485883 88.96649009 31.29229379 116 53 C117.50046875 54.19109375 117.50046875 54.19109375 119.03125 55.40625 C132.89778302 66.7515952 146.2899831 79.6029281 157 94 C157.45971191 94.59973633 157.91942383 95.19947266 158.39306641 95.81738281 C183.7457788 128.9479423 200.63105558 166.93602242 208 208 C208.16226074 208.83128418 208.32452148 209.66256836 208.49169922 210.51904297 C213.76694663 238.13651472 213.55756833 270.45402542 208 298 C207.82307617 298.90186035 207.64615234 299.8037207 207.46386719 300.73291016 C206.16498713 307.20599895 204.65342874 313.60888488 203 320 C202.79036621 320.82000488 202.58073242 321.64000977 202.36474609 322.48486328 C193.55514117 356.17024255 176.70770621 386.96649009 155 414 C154.2059375 415.0003125 153.411875 416.000625 152.59375 417.03125 C141.2484048 430.89778302 128.3970719 444.2899831 114 455 C113.10039551 455.68956787 113.10039551 455.68956787 112.18261719 456.39306641 C79.0520577 481.7457788 41.06397758 498.63105558 0 506 C-0.83128418 506.16226074 -1.66256836 506.32452148 -2.51904297 506.49169922 C-30.13651472 511.76694663 -62.45402542 511.55756833 -90 506 C-90.90186035 505.82307617 -91.8037207 505.64615234 -92.73291016 505.46386719 C-99.20599895 504.16498713 -105.60888488 502.65342874 -112 501 C-112.82000488 500.79036621 -113.64000977 500.58073242 -114.48486328 500.36474609 C-148.17024255 491.55514117 -178.96649009 474.70770621 -206 453 C-207.0003125 452.2059375 -208.000625 451.411875 -209.03125 450.59375 C-222.89778302 439.2484048 -236.2899831 426.3970719 -247 412 C-247.68956787 411.10039551 -247.68956787 411.10039551 -248.39306641 410.18261719 C-273.7457788 377.0520577 -290.63105558 339.06397758 -298 298 C-298.16226074 297.16871582 -298.32452148 296.33743164 -298.49169922 295.48095703 C-303.76694663 267.86348528 -303.55756833 235.54597458 -298 208 C-297.82307617 207.09813965 -297.64615234 206.1962793 -297.46386719 205.26708984 C-296.16498713 198.79400105 -294.65342874 192.39111512 -293 186 C-292.79036621 185.17999512 -292.58073242 184.35999023 -292.36474609 183.51513672 C-283.55514117 149.82975745 -266.70770621 119.03350991 -245 92 C-244.2059375 90.9996875 -243.411875 89.999375 -242.59375 88.96875 C-231.2484048 75.10221698 -218.3970719 61.7100169 -204 51 C-203.40026367 50.54028809 -202.80052734 50.08057617 -202.18261719 49.60693359 C-169.0520577 24.2542212 -131.06397758 7.36894442 -90 0 C-89.16871582 -0.16226074 -88.33743164 -0.32452148 -87.48095703 -0.49169922 C-59.86348528 -5.76694663 -27.54597458 -5.55756833 0 0 Z " fill="#1070DD" transform="translate(301,3)"/>
<path d="M0 0 C13.15503046 8.72952549 21.92282809 21.0833693 26.9609375 35.96484375 C27.20585937 36.67511719 27.45078125 37.38539063 27.703125 38.1171875 C32.19127168 54.13310818 28.19526652 71.29543143 20.453125 85.6015625 C12.25747989 98.58157635 0.59152905 108.0879799 -14.0390625 112.96484375 C-14.3690625 158.50484375 -14.6990625 204.04484375 -15.0390625 250.96484375 C-2.47689473 247.94480165 -2.47689473 247.94480165 9.7734375 244.08984375 C10.83014648 243.70977173 10.83014648 243.70977173 11.90820312 243.32202148 C21.66190485 239.70900228 30.07290191 234.74680793 37.9609375 227.96484375 C38.97800781 227.12566406 38.97800781 227.12566406 40.015625 226.26953125 C53.84631473 213.83805526 56.85263487 196.69768587 57.9609375 178.96484375 C70.8309375 178.96484375 83.7009375 178.96484375 96.9609375 178.96484375 C96.9609375 204.8819181 90.30841787 228.22460747 72.9609375 247.96484375 C72.30867187 248.77179688 71.65640625 249.57875 70.984375 250.41015625 C53.84215607 270.89093467 26.87446166 281.9788417 1.32910156 287.45654297 C-0.54846357 287.859542 -2.42040969 288.28870722 -4.29003906 288.72705078 C-13.71958922 290.81631413 -22.64804208 291.45033974 -32.2890625 291.33984375 C-33.36840057 291.33336319 -33.36840057 291.33336319 -34.46954346 291.32675171 C-45.87787388 291.24669159 -56.90279279 290.55945909 -68.0390625 287.96484375 C-68.8237793 287.78791992 -69.60849609 287.61099609 -70.41699219 287.42871094 C-101.76105498 280.21845573 -132.45921467 265.01478204 -150.0390625 236.96484375 C-155.95674995 226.77774911 -159.94195347 216.30001202 -163.0390625 204.96484375 C-163.28527344 204.17078125 -163.53148437 203.37671875 -163.78515625 202.55859375 C-165.98174608 194.68116815 -165.0390625 187.43771028 -165.0390625 178.96484375 C-152.4990625 178.96484375 -139.9590625 178.96484375 -127.0390625 178.96484375 C-126.7090625 182.92484375 -126.3790625 186.88484375 -126.0390625 190.96484375 C-125.39701763 193.91415745 -124.73998537 196.66614525 -123.8515625 199.52734375 C-123.63089111 200.24986328 -123.41021973 200.97238281 -123.18286133 201.71679688 C-117.63340232 219.11195536 -106.35142802 230.6285582 -90.32421875 238.9453125 C-78.34485058 244.87532449 -66.08866859 247.95339619 -53.0390625 250.96484375 C-53.0390625 205.42484375 -53.0390625 159.88484375 -53.0390625 112.96484375 C-54.6890625 112.63484375 -56.3390625 112.30484375 -58.0390625 111.96484375 C-75.74868887 104.40556699 -86.82212907 91.61351201 -93.99609375 73.88671875 C-96.40194452 67.14673233 -97.39882997 61.38637113 -97.3515625 54.27734375 C-97.34592285 53.39175781 -97.3402832 52.50617188 -97.33447266 51.59375 C-97.04504058 35.91283589 -91.34506689 22.75619245 -81.0390625 10.96484375 C-80.52988281 10.3615625 -80.02070313 9.75828125 -79.49609375 9.13671875 C-71.07716554 -0.09292106 -59.96180158 -5.06704821 -48.0390625 -8.03515625 C-47.3994458 -8.20950195 -46.7598291 -8.38384766 -46.10083008 -8.56347656 C-30.73099134 -12.07970255 -13.29041295 -7.76094484 0 0 Z " fill="#FDFEFE" transform="translate(287.0390625,118.03515625)"/>
<path d="M0 0 C6.49023992 3.63784148 11.48518387 8.83513776 13.75 16 C14.58903439 23.61960301 14.60523302 30.7770957 9.75 37 C3.75640877 43.6971279 -2.38990109 46.38284458 -11.1875 47.5 C-18.32904456 47.15857157 -24.44812663 43.26432049 -29.1875 38.125 C-33.93164246 32.15006587 -36.08767185 26.67612025 -35.25 19 C-34.02570474 12.14394655 -30.72144946 6.65772595 -25.18359375 2.41796875 C-17.20779009 -2.67890762 -8.8534693 -4.04032749 0 0 Z " fill="#0E82D6" transform="translate(263.25,149)"/>
</svg>
